Coordinates
version=1
nRows=32
nColumns=12
inDegrees=yes

Units are S.I. units (second, meters, Newtons, ...)
Angles are in degrees

endheader
time	SC_y	SC_z	SC_x	AC_y	AC_z	AC_x	GH_y	GH_z	GH_yy	EL_x	PS_y
       0.0              -52.33          27.92          16.53          39.82         -9.461         -14.58          127.4         -16.26          174.7           77.1           31.5
   0.02496              -52.33          27.92          16.53          39.82         -9.459         -14.57          127.4         -16.26          174.6          77.11           31.5
   0.04993              -52.32          27.92          16.53          39.83         -9.457         -14.57          127.4         -16.26          174.6          77.12           31.5
   0.07489              -52.32          27.92          16.53          39.83         -9.455         -14.56          127.4         -16.26          174.5          77.13           31.5
   0.09985              -52.31          27.92          16.53          39.83         -9.452         -14.56          127.4         -16.26          174.5          77.14           31.5
    0.1248              -52.31          27.92          16.54          39.83          -9.45         -14.55          127.4         -16.25          174.4          77.15           31.5
    0.1498               -52.3          27.92          16.54          39.84         -9.447         -14.54          127.3         -16.25          174.3          77.16           31.5
    0.1747              -52.29          27.92          16.54          39.84         -9.444         -14.54          127.3         -16.25          174.3          77.18           31.5
    0.1997              -52.29          27.93          16.54          39.84         -9.441         -14.53          127.3         -16.25          174.2          77.19           31.5
    0.2247              -52.28          27.93          16.54          39.85         -9.437         -14.52          127.3         -16.25          174.1           77.2           31.5
    0.2496              -52.27          27.93          16.54          39.85         -9.433         -14.51          127.3         -16.24          174.0          77.22           31.5
    0.2746              -52.26          27.93          16.54          39.85         -9.429          -14.5          127.3         -16.24          173.9          77.24           31.5
    0.2996              -52.25          27.93          16.54          39.86         -9.425         -14.49          127.2         -16.24          173.8          77.26           31.5
    0.3245              -52.24          27.94          16.55          39.86         -9.421         -14.48          127.2         -16.24          173.7          77.28           31.5
    0.3495              -52.23          27.94          16.55          39.87         -9.416         -14.47          127.2         -16.23          173.6           77.3           31.5
    0.3744              -52.21          27.94          16.55          39.87          -9.41         -14.46          127.2         -16.23          173.5          77.32           31.5
    0.3994               -52.2          27.94          16.55          39.88         -9.404         -14.44          127.1         -16.23          173.4          77.35           31.5
    0.4244              -52.18          27.95          16.55          39.89         -9.398         -14.43          127.1         -16.22          173.2          77.38          31.49
    0.4493              -52.17          27.95          16.56          39.89         -9.391         -14.41          127.1         -16.22          173.0          77.41          31.49
    0.4743              -52.15          27.95          16.56           39.9         -9.383         -14.39          127.0         -16.21          172.9          77.44          31.49
    0.4993              -52.13          27.96          16.56          39.91         -9.374         -14.37          127.0         -16.21          172.7          77.48          31.49
    0.5242              -52.11          27.96          16.57          39.92         -9.365         -14.35          127.0          -16.2          172.5          77.52          31.49
    0.5492              -52.08          27.97          16.57          39.93         -9.355         -14.32          126.9         -16.19          172.2          77.56          31.49
    0.5742              -52.06          27.97          16.57          39.94         -9.343          -14.3          126.9         -16.19          171.9          77.61          31.49
    0.5991              -52.03          27.98          16.58          39.95         -9.331         -14.27          126.8         -16.18          171.7          77.67          31.49
    0.6241              -51.99          27.99          16.58          39.97         -9.317         -14.23          126.7         -16.17          171.3          77.73          31.48
     0.649              -51.96          27.99          16.59          39.98         -9.301          -14.2          126.7         -16.16          171.0           77.8          31.48
     0.674              -51.92           28.0           16.6           40.0         -9.283         -14.15          126.6         -16.15          170.5          77.88          31.48
     0.699              -51.87          28.01           16.6          40.02         -9.263         -14.11          126.5         -16.14          170.1          77.97          31.48
    0.7239              -51.81          28.02          16.61          40.04          -9.24         -14.05          126.4         -16.12          169.5          78.07          31.47
    0.7489              -51.75          28.04          16.62          40.07         -9.214         -13.99          126.2          -16.1          168.9          78.18          31.47
    0.7739              -51.68          28.05          16.63           40.1         -9.184         -13.92          126.1         -16.08          168.2          78.31          31.47
